<?xml version="1.0" encoding="UTF-8" standalone="no"?>
<!-- Created with Inkscape (http://www.inkscape.org/) -->

<svg
   xmlns:dc="http://purl.org/dc/elements/1.1/"
   xmlns:cc="http://creativecommons.org/ns#"
   xmlns:rdf="http://www.w3.org/1999/02/22-rdf-syntax-ns#"
   xmlns:svg="http://www.w3.org/2000/svg"
   xmlns="http://www.w3.org/2000/svg"
   xmlns:sodipodi="http://sodipodi.sourceforge.net/DTD/sodipodi-0.dtd"
   xmlns:inkscape="http://www.inkscape.org/namespaces/inkscape"
   width="884.03998"
   height="884.29102"
   id="svg2"
   version="1.1"
   inkscape:version="0.48.1 r9760"
   sodipodi:docname="New document 1">
  <defs
     id="defs4" />
  <sodipodi:namedview
     id="base"
     pagecolor="#ffffff"
     bordercolor="#666666"
     borderopacity="1.0"
     inkscape:pageopacity="0.0"
     inkscape:pageshadow="2"
     inkscape:zoom="0.35"
     inkscape:cx="552.17752"
     inkscape:cy="443.55058"
     inkscape:document-units="px"
     inkscape:current-layer="layer1"
     showgrid="false"
     fit-margin-top="0"
     fit-margin-left="0"
     fit-margin-right="0"
     fit-margin-bottom="0"
     inkscape:window-width="1216"
     inkscape:window-height="784"
     inkscape:window-x="60"
     inkscape:window-y="-1"
     inkscape:window-maximized="1" />
  <metadata
     id="metadata7">
    <rdf:RDF>
      <cc:Work
         rdf:about="">
        <dc:format>image/svg+xml</dc:format>
        <dc:type
           rdf:resource="http://purl.org/dc/dcmitype/StillImage" />
        <dc:title></dc:title>
      </cc:Work>
    </rdf:RDF>
  </metadata>
  <g
     inkscape:label="Layer 1"
     inkscape:groupmode="layer"
     id="layer1"
     transform="translate(334.38782,-0.76652746)">
    <g
       id="g3817">
      <g
         id="g3796">
        <path
           style="fill:#67d122;fill-opacity:1;stroke:none"
           d="m 303.62361,86.032497 c 7.84315,2.570548 77.96801,30.797293 81.1568,34.011073 9.77093,9.84748 68.41056,77.55232 68.36632,79.81334 -0.11889,6.07565 115.28119,160.59851 79.9338,281.85683 -3.838,13.16618 -44.93348,-8.71398 -64.17538,-6.84892 -20.96418,2.032 -10.15895,-38.61022 -15.80494,-34.09662 -5.64599,4.5136 -23.84207,14.12529 -24.51221,23.98117 -0.52737,7.75622 -2.64372,3.89366 -7.10223,12.04609 -4.45851,8.15242 6.67321,15.83402 3.13051,18.42173 -9.30949,6.79996 -13.94795,13.20865 -19.51823,9.49059 -35.89043,-23.95618 -46.21012,4.3418 -47.52235,5.87271 -1.15968,1.35293 -9.49118,27.84019 -2.16388,42.72618 4.03431,8.19602 -2.90085,10.67071 -11.42529,18.4757 -8.52445,7.80498 -33.29731,-4.87407 -35.84581,3.81157 -6.21494,21.18135 -19.22938,-0.25819 -19.35398,1.59097 -0.64571,9.58264 9.88646,8.35621 5.49823,18.87163 -5.87013,14.06647 17.32096,10.88989 15.78235,26.75671 -0.0949,0.97858 -19.39818,-7.21042 -14.387,3.25841 3.04877,6.36918 0.22299,5.41183 0.81211,11.26344 1.17824,11.70321 -5.41251,-3.64343 -5.45669,-1.52732 -0.42812,20.50464 -7.65222,-5.90396 -8.04455,-2.45184 -2.33794,20.57162 -8.87817,-16.89992 -10.75833,-20.3536 -4.37427,-8.0351 -10.61332,-22.96002 -20.69566,-32.00255 -5.21564,-4.67774 1.07557,-14.27322 -2.64289,-21.85545 -6.86384,-13.99592 -46.18813,-34.04542 -50.60979,-44.09843 -4.85367,-11.03521 -28.57788,-33.66713 -30.66787,-21.58863 -1.29176,7.46532 10.21244,49.50633 44.45752,73.65947 3.00113,2.11671 30.36777,12.33055 25.37751,21.18597 -1.26715,2.2486 -16.91493,-12.45131 -20.35355,-7.3043 -3.27436,4.90115 -4.38771,11.52787 3.36718,17.37766 3.92652,2.96191 -9.73822,13.5798 -14.80888,22.53984 -1.34006,2.36794 6.45962,-29.54097 -6.214,-37.14184 -6.92641,-4.15405 -19.06349,-19.22985 -31.34313,-23.025 -11.00006,-3.39969 -31.68597,-56.93847 -41.96034,-54.47117 -10.27438,2.46731 -26.860837,18.87733 -36.097259,14.54974 -19.972503,-9.35782 -25.041757,-9.27873 -32.325317,-7.39087 -7.283559,1.88785 -0.775081,22.87534 -29.573087,26.13557 -5.396123,0.61089 -12.902501,11.65033 -15.697717,12.62909 -2.7952165,0.97877 -4.2811562,1.68906 -4.2706288,2.08966 0.1838786,6.99727 -14.4737286,59.5414 -63.1954482,34.89932 -3.455788,-1.74784 -12.578972,7.81535 -18.294402,6.06778 -5.71542,-1.74757 -4.003294,-18.05727 -8.729095,-22.73362 -5.121575,-5.06799 -18.678666,0.60044 -22.713816,-5.79063 -8.25285,-13.07129 21.43596,-108.97256 35.822872,-100.60322 14.473984,8.41999 81.809378,34.44533 76.5238252,32.47144 -5.285553,-1.97389 15.3230968,-39.44221 14.0318978,-44.78091 -0.79566,-3.2898 -6.625104,-6.04777 -6.652909,-9.50314 -0.187662,-23.32114 -15.93874239,-24.61602 -18.387818,-29.04807 -5.1651083,-9.34721 -1.8694157,-15.52762 12.4093486,-8.93361 5.0154884,2.31618 14.2104974,8.72678 18.1129644,6.44181 5.45323,-3.19297 -0.724321,-14.70198 4.794503,-16.49323 6.553222,-2.12698 1.639744,14.62865 11.382506,11.18987 8.177158,-2.88618 12.433265,-2.10897 19.305554,-8.00894 5.582678,-4.79282 -1.165914,-9.68039 4.99221,-11.58963 19.535797,-6.05681 33.674776,-21.32003 41.299626,-29.19505 4.81942,-4.97755 34.02343,0.0497 39.29923,-8.32522 3.39909,-5.39579 4.78593,-36.26375 -0.2947,-38.623 -5.08063,-2.35925 16.6634,-20.13998 24.30355,-20.44551 8.16192,-0.3264 -16.99304,53.58681 -10.83456,54.42152 13.57597,1.84006 8.20414,1.08582 13.2195,6.33523 2.15372,2.25423 13.40285,-5.49197 18.96574,-2.91865 4.67129,2.16088 -2.6654,15.18147 3.17546,9.77988 6.32487,-5.8492 19.49775,-3.58351 28.60656,-9.17949 12.26967,-7.53784 15.22199,-5.61398 16.74829,1.96234 0.54355,2.69812 1.54846,4.55739 12.95779,-5.72319 7.92204,-7.1383 18.47202,1.50811 14.02079,-5.80752 -4.45123,-7.31563 -6.70721,-30.56229 4.58013,-40.79063 9.65157,-8.74606 7.39522,15.55222 19.99296,2.54176 3.82146,-3.94666 2.45687,-6.68047 -1.91039,-11.55612 -5.52862,-6.17219 -12.91535,-11.33377 -9.14738,-16.48931 7.16821,-9.80795 45.28034,-7.53071 46.77142,-15.76898 1.18009,-6.51999 1.99458,-5.47374 -3.08255,-10.46656 -3.3586,-3.30283 -26.16159,14.337 -41.85462,9.96424 -13.86205,-3.86258 -18.92871,4.80635 -19.05726,-42.07945 -0.0246,-8.95295 30.87351,-41.41573 29.04678,-42.65501 -7.35124,-4.98714 -10.86642,-8.49703 -14.9743,-6.48724 -4.76863,2.33307 -5.60759,2.1378 -9.61321,6.02646 -4.42387,4.29471 -4.19235,13.76932 -4.02987,15.09298 1.62692,13.25417 -29.73424,28.67198 -30.39772,32.12038 -0.0797,0.41447 -2.74525,26.21339 -2.98852,28.59296 -0.24326,2.37958 5.86427,-3.30306 11.54491,7.36259 1.83315,3.44182 6.80432,3.73766 -2.44512,15.45223 -6.79276,8.60314 -11.20277,3.19754 -12.45859,8.57624 -3.62294,15.51703 -5.11558,29.12419 -5.08102,30.51719 0.33617,13.5505 -11.22475,11.13014 -17.37743,12.64846 -6.85621,1.69193 3.05276,11.49238 -16.08274,11.78217 -43.34715,0.65645 5.78648,-14.06854 1.30215,-20.17446 -6.71396,-9.14183 -14.87828,-45.59637 -15.55787,-47.25354 -0.48845,1.98778 -20.38866,17.22558 -27.96584,16.69898 -8.74552,0.87126 -11.16461,-10.75117 -12.23771,-12.21265 -5.76916,-7.85714 3.44476,-43.64372 2.83611,-50.31329 -0.60866,-6.66957 46.84419,-28.64149 48.17659,-32.01414 1.76777,-4.47467 49.05244,-82.99397 82.79661,-97.87276 7.89991,-3.4833 19.38953,-10.088555 33.7937,-5.367663 z"
           id="path3755"
           inkscape:connector-curvature="0"
           sodipodi:nodetypes="cssssssssssssssssssssssssssssssssssssssssssssssssssssssssssssssssssssssssssssssssssssssccsssssc" />
        <path
           style="fill:#67d122;fill-opacity:1;fill-rule:nonzero;stroke:none"
           d="m 412.85713,724.50506 c 0,14.5961 -103.09846,132.14286 -303.57141,145 -174.40037,11.185 -334.06416,-154.85365 -323.57141,-165 38.57143,-37.29805 57.86254,-15.80058 72.67978,-38.68783 15.11944,-23.35405 -9.34485,-56.31217 78.034484,-56.31217 43.689666,0 2.110901,26.3837 51.87363,10.38046 41.651632,-13.39479 91.279708,-2.53103 138.303716,8.78886 47.02402,11.31988 -15.6989,51.66733 14.1079,61.52563 7.4517,2.46457 28.18651,14.18429 55.09714,17.57741 26.91063,3.39313 29.99708,29.88824 62.15207,33.33216 32.15499,3.44392 -12.33577,-29.02048 10.84901,-26.40351 11.59239,1.30848 -8.11063,-13.61269 25.00255,-11.6041 33.11318,2.0086 119.04254,20.94696 119.04254,21.40309 z"
           id="path3793"
           inkscape:connector-curvature="0"
           sodipodi:nodetypes="sssssssssssss" />
        <path
           style="fill:#67d122;fill-opacity:1;fill-rule:nonzero;stroke:none"
           d="m 498.92858,612.54075 c 1.42857,26.00075 -103.00926,35.85053 -118.03571,24.82143 -17.51704,-12.85714 -19.21853,-4.95994 -23.74585,-9.80105 -4.52732,-4.84111 -8.66619,-19.20625 -11.77229,-25.87378 -3.10611,-6.66752 -9.10803,-13.13744 -9.5043,-18.61671 -0.39627,-5.47926 23.38453,-11.03929 26.98672,-12.3156 12.5,-4.42894 34.72939,-31.80134 69.97444,-29.83957 38.33969,2.13403 78.74148,-11.76757 88.06128,-11.76757 18.63961,0 -22.80292,68.12942 -21.96429,83.39285 z"
           id="path3781"
           inkscape:connector-curvature="0"
           sodipodi:nodetypes="sssssssss" />
        <path
           sodipodi:type="arc"
           style="fill:none;stroke:#000000;stroke-width:3;stroke-miterlimit:4;stroke-opacity:1;stroke-dasharray:none"
           id="path2985"
           sodipodi:cx="269.71072"
           sodipodi:cy="402.83411"
           sodipodi:rx="53.538086"
           sodipodi:ry="53.538086"
           d="m 323.24881,402.83411 c 0,29.56826 -23.96982,53.53808 -53.53809,53.53808 -29.56826,0 -53.53808,-23.96982 -53.53808,-53.53808 0,-29.56827 23.96982,-53.53809 53.53808,-53.53809 29.56827,0 53.53809,23.96982 53.53809,53.53809 z"
           transform="matrix(8.0321634,0,0,8.0321634,-2058.7929,-2792.6693)" />
        <path
           style="fill:#67d122;fill-opacity:1;fill-rule:nonzero;stroke:none"
           d="m 193.92857,617.7193 c 0,9.07325 4.64073,25.9698 -3.21428,21.42858 -10.50182,-6.07143 -29.28571,-9.85533 -29.28571,-18.92858 0,-9.07325 -0.52411,-7.08506 8.21428,-4.64285 23.00182,6.42857 24.28571,-6.9304 24.28571,2.14285 z"
           id="path3769"
           inkscape:connector-curvature="0"
           sodipodi:nodetypes="sssss" />
        <path
           style="fill:#67d122;fill-opacity:1;fill-rule:nonzero;stroke:none"
           d="m 127.5,573.61219 c 0,7.59391 3.48677,19.82143 -14.46428,20.89286 -7.58043,0.45245 -4.82143,-12.58466 -4.82143,-20.17857 0,-7.59392 6.15608,-13.75 13.75,-13.75 7.59391,0 5.53571,5.44179 5.53571,13.03571 z"
           id="path3772"
           inkscape:connector-curvature="0"
           sodipodi:nodetypes="sssss" />
        <path
           style="fill:#67d122;fill-opacity:1;fill-rule:nonzero;stroke:none"
           d="m 130.71428,543.61218 c 0,4.63525 -2.39847,11.60715 -5.35714,11.60715 -2.95867,0 -5.71428,-6.25761 -5.71428,-10.89286 0,-4.63524 -1.88725,-9.10714 5.71428,-9.10714 2.95867,0 5.35714,3.75761 5.35714,8.39285 z"
           id="path3775"
           inkscape:connector-curvature="0"
           sodipodi:nodetypes="sssss" />
        <path
           style="fill:#67d122;fill-opacity:1;fill-rule:nonzero;stroke:none"
           d="m 344.28571,662.00507 c -0.74907,2.86226 -10.25593,5.81469 -21.07143,3.57143 -10.33141,-2.14286 -19.4295,-0.65548 -18.92857,-3.57143 1.42857,-8.31581 7.52573,-1.42858 18.57143,-1.42858 11.04569,0 22.85714,-4.03009 21.42857,1.42858 z"
           id="path3778"
           inkscape:connector-curvature="0"
           sodipodi:nodetypes="sssss" />
        <path
           style="fill:#67d122;fill-opacity:1;fill-rule:nonzero;stroke:none"
           d="m 58.571429,317.36218 c 9.285714,18.93547 2.921322,11.79261 15.27484,44.2016 4.579032,12.01291 -15.860767,23.65553 -20.989126,23.65553 -0.641045,0 -43.2080973,-3.39001 -52.54160798,-9.63835 C -6.060384,371.3126 21.310627,370.94027 25.032321,365.22127 c 6.573236,-10.10085 -12.255142,-8.61105 -13.53348,-11.55136 -2.5566758,-5.88062 14.995989,-2.68736 12.869176,-12.10614 -2.126812,-9.41878 17.49547,-0.7353 16.220883,-11.34979 -1.274587,-10.61448 -9.874614,-29.81264 -9.874614,-39.28038 0,-37.87095 19.743284,-40 30,-40 1.28209,0 -13.106166,6.44416 -10.707862,12.65392 2.398305,6.20976 17.297457,8.61368 17.154362,10.53322 -0.286191,3.83909 -12.884225,7.8835 -13.853135,14.41905 -0.96891,6.53556 4.691305,8.41941 5.207326,16.50881 0.516021,8.08941 -4.112151,3.81294 0.05645,12.31358 z"
           id="path3784"
           inkscape:connector-curvature="0"
           sodipodi:nodetypes="sssssssssssssss" />
        <path
           style="fill:#67d122;fill-opacity:1;fill-rule:nonzero;stroke:none"
           d="m 2.1428577,334.50503 c 0,14.99058 -21.6830897,6.42857 -37.8571437,6.42857 -16.174054,0 14.285714,-15.00942 14.285714,-30 0,-14.99059 -4.031196,-20.71428 12.1428577,-20.71428 8.0870269,0 29.5155983,3.75235 30.3509843,12.94995 0.835387,9.19761 -18.9224123,23.84047 -18.9224123,31.33576 z"
           id="path3786"
           inkscape:connector-curvature="0"
           sodipodi:nodetypes="ssssss" />
        <path
           style="fill:#67d122;fill-opacity:1;fill-rule:nonzero;stroke:none"
           d="m 34.285714,111.64789 c 0,14.99059 -4.540232,27.85715 -20.714286,27.85715 -16.1740535,0 -32.142858,-7.15227 -32.142858,-22.14286 0,-23.923863 10.4658445,-39.330198 14.2918733,-34.907181 7.7996721,9.01668 5.4782437,14.907184 13.5652704,14.907184 16.1740543,0 25.0000003,-0.704872 25.0000003,14.285707 z"
           id="path3788"
           inkscape:connector-curvature="0"
           sodipodi:nodetypes="ssssss" />
      </g>
      <g
         id="g3813">
        <path
           style="fill:#006cf3;fill-opacity:1;fill-rule:nonzero;stroke:none"
           d="m 580.51952,735.94226 c -3.74049,-1.49694 -13.15226,-8.03937 -20.91503,-14.53874 -11.19543,-9.37334 -19.24252,-13.1552 -38.91343,-18.28806 -34.04206,-8.88277 -51.95752,-16.9198 -51.87937,-23.27348 0.0346,-2.80586 2.60594,-10.70623 5.71428,-17.5564 12.18283,-26.84857 7.09935,-31.94572 -42.06617,-42.17912 -43.33217,-9.01925 -80.43077,-9.90665 -110.0594,-2.63263 l -22.06285,5.41655 -7.08645,-7.6464 c -6.4476,-6.95709 -8.98379,-7.6464 -28.13287,-7.6464 -24.56237,0 -48.74552,6.39394 -57.53588,15.21231 -3.4081,3.41894 -7.80737,13.43503 -9.77615,22.25794 -4.52666,20.2858 -11.56763,26.9252 -35.62942,33.59732 -16.32894,4.52788 -36.83131,16.10511 -42.19625,23.82728 -3.57523,5.14612 -39.495906,-51.1148 -56.31338,-88.20105 C 48.720186,581.33003 41.857538,560.55943 33.959791,524.37872 24.738518,482.13469 24.719188,402.46892 33.919888,359.91641 63.511461,223.05771 155.19891,111.52551 281.46803,58.789183 364.71383,24.02155 460.69634,17.010095 545.8918,39.473211 c 38.5686,10.169214 92.78774,33.024795 110,46.369481 7.3698,5.713809 4.3962,5.698763 -13.23146,-0.06694 -32.5388,-10.6429 -60.34731,9.139863 -105.2772,74.893421 -18.22911,26.67776 -21.34048,29.75672 -42.4852,42.04263 l -22.81557,13.25675 -2.10965,19.38595 c -3.07009,28.21114 -2.71575,33.82622 2.65162,42.01783 6.05729,9.24461 12.47955,9.30057 25.85278,0.22526 12.14554,-8.2422 13.12897,-8.49156 13.12897,-3.32903 0,2.09761 2.68748,12.00031 5.97217,22.00598 l 5.97217,18.19215 -9.52534,7.77417 c -11.37772,9.28606 -9.27346,12.49957 8.18488,12.49957 10.29629,0 13.86863,-1.33105 17.25326,-6.42857 2.34763,-3.53571 6.63777,-6.42857 9.53369,-6.42857 6.6384,0 9.90968,-6.27746 12.47382,-23.93671 2.58312,-17.79009 4.17315,-21.77757 8.68386,-21.77757 2.00829,0 5.86077,-3.3719 8.56109,-7.4931 4.14457,-6.32542 4.34317,-8.55163 1.27437,-14.28572 -1.9994,-3.73594 -5.5138,-6.79261 -7.80977,-6.79261 -3.28323,0 -3.85166,-2.86427 -2.66237,-13.4155 1.3258,-11.76265 3.27771,-14.93665 15.8428,-25.76212 11.29322,-9.7297 14.73957,-14.76672 16.25974,-23.76461 2.39586,-14.18098 11.56511,-20.49453 21.04394,-14.48993 3.08369,1.95344 1.48974,5.7375 -7.50351,17.81339 -17.32223,23.25986 -18.1166,25.5889 -15.42937,45.23833 1.31374,9.60625 3.7244,18.80171 5.35705,20.43436 6.24677,6.24676 25.24155,6.20647 39.46157,-0.0837 9.0024,-3.98219 14.75683,-5.12647 16.58529,-3.29801 4.99931,4.99934 -3.29363,10.80818 -18.26566,12.79429 -17.19605,2.28113 -28.40654,6.98363 -28.40654,11.91577 0,1.98434 3.30643,7.53736 7.34763,12.34004 4.0412,4.80269 6.53674,10.04419 5.54566,11.64779 -2.32012,3.75404 -10.03615,3.799 -10.03615,0.0585 0,-3.9015 -10.61508,-3.62771 -13.06543,0.33699 -4.2048,6.80352 -6.23162,22.96875 -4.07742,32.52015 2.03151,9.0074 1.64714,10.00903 -3.87232,10.09086 -3.37023,0.05 -8.58037,1.94708 -11.57814,4.2158 -4.75846,3.60123 -5.84666,3.59023 -8.57143,-0.0866 -2.70926,-3.65595 -5.75469,-3.28832 -23.08583,2.78691 -17.4288,6.10943 -20.2734,6.44709 -22.39386,2.65806 -1.50574,-2.69063 -5.86297,-4.11812 -11.46371,-3.75566 -11.23143,0.72686 -21.89894,-2.66651 -21.87003,-6.95688 0.0114,-1.781 2.5736,-11.59535 5.69246,-21.80963 3.11886,-10.21429 5.68046,-20.82143 5.69246,-23.57143 0.0308,-7.04696 -7.8506,-6.21138 -18.57623,1.96945 -9.10535,6.94498 -9.13263,7.04397 -7.77583,28.18589 1.5844,24.68832 1.20088,25.15583 -22.97412,28.00632 -14.0672,1.65865 -18.40371,3.70291 -29.44531,13.88068 -7.12169,6.56454 -16.72334,13.25146 -21.337,14.85977 -4.61363,1.60835 -10.00743,6.24337 -11.9862,10.30009 -1.97877,4.05671 -7.32134,8.60483 -11.87234,10.10691 -6.9982,2.3098 -8.99835,1.77157 -12.96655,-3.48917 -5.0044,-6.63451 -8.75888,-5.38451 -8.75888,2.91617 0,7.63312 -4.03197,8.6752 -15.319,3.95917 -5.61646,-2.34671 -12.18163,-4.26674 -14.58923,-4.26674 -6.96837,0 -5.33014,13.00432 2.26514,17.98094 3.72789,2.4426 9.27795,11.50629 12.6484,20.65586 l 6.00575,16.30343 -7.73286,19.24689 -7.73289,19.24685 -35.47944,-15.28843 c -19.5137,-8.4086 -37.69225,-15.2884 -40.39678,-15.2884 -9.78065,0 -24.00414,32.03823 -32.51411,73.23763 -5.19447,25.14806 -2.956,32.47666 9.91978,32.47666 8.91976,0 11.3052,2.36754 15.83312,15.71429 2.33496,6.88268 4.30518,8.39228 10,7.6622 9.67082,-1.23983 19.01708,-0.9802 34.23498,0.95097 9.92,1.25885 14.95208,0.32385 22.0276,-4.093 8.46648,-5.28512 20.82954,-24.19057 20.82954,-31.85229 0,-4.92091 13.59068,-14.97234 26.83211,-19.84451 8.69529,-3.19943 13.09686,-7.08897 16.97463,-15 5.91952,-12.07637 9.11606,-12.73337 28.37232,-5.83149 13.56382,4.86157 13.65871,4.85223 29.46585,-2.90031 8.722,-4.27769 17.19232,-6.95306 18.82289,-5.94532 1.63057,1.00775 9.88608,12.56132 18.34554,25.67455 8.55872,13.26708 18.88617,25.655 23.28377,27.92911 4.34657,2.24777 14.01003,9.77414 21.47432,16.72529 12.90457,12.01742 13.57143,13.385 13.57143,27.83162 l 0,15.1932 8.57142,-10.78574 c 9.22652,-11.61003 10.15578,-14.39786 5.71429,-17.14286 -3.64074,-2.25008 -3.75166,-12.85714 -0.13457,-12.85714 1.49748,0 6.00291,1.49457 10.01206,3.32126 4.00917,1.82668 8.11002,2.50063 9.11302,1.49763 2.89212,-2.89212 -4.78225,-10.45649 -16.85954,-16.61786 -15.15654,-7.73229 -34.05057,-28.0914 -42.79551,-46.114 -8.77483,-18.08454 -12.514,-33.5156 -8.12117,-33.5156 1.70331,0 12.47562,9.32143 23.93854,20.71429 11.46291,11.39285 28.17146,26.90185 37.13011,34.46445 14.564,12.2944 16.28849,14.90415 16.28849,24.65015 0,6.09834 1.84788,12.43362 4.1948,14.38137 6.3014,5.22971 17.11786,25.783 21.15271,40.19411 5.68169,20.29297 23.22392,25.41889 23.22392,6.78612 0,-8.50795 0.91754,-9.76192 7.14285,-9.76192 9.64946,0 9.15609,-6.74877 -1.02328,-13.99711 -9.5692,-6.81389 -11.43657,-23.12755 -2.64866,-23.13923 2.69472,-0.004 6.27566,-2.57794 7.95766,-5.7208 4.54477,-8.492 30.1124,-7.34023 26.83186,1.20874 -1.98658,5.17694 21.1426,50.21983 25.78748,50.21983 2.14472,0 9.50417,2.5432 16.35437,5.65154 15.37309,6.97572 44.07783,7.55697 75.57595,1.5304 12.20734,-2.33565 22.58782,-3.85397 23.06777,-3.37403 2.97171,2.97172 -56.60872,87.62066 -61.67209,87.62066 -1.05166,0 -21.14103,-3.94614 -44.64303,-8.76923 -23.50197,-4.82305 -54.69363,-9.51614 -69.31474,-10.42903 -25.47726,-1.59074 -26.65074,-1.40411 -28.19037,4.48349 -0.92654,3.54311 -3.88412,6.14334 -6.98757,6.14334 -6.44803,0 -6.48897,0.38906 -1.33852,12.71589 2.22343,5.32134 3.29486,10.42291 2.38097,11.3368 -2.41977,2.41974 -12.53128,1.71363 -20.36722,-1.42229 z m 96.71811,-71.09023 c 7.24963,-4.5848 0.37994,-7.17982 -20.1254,-7.60237 -14.70849,-0.30308 -19.79186,0.5622 -19.79186,3.369 0,5.3798 32.63223,8.84057 39.91726,4.23337 z M 531.56709,632.59758 c -0.0906,-14.91195 -2.782,-18.50649 -13.85715,-18.50649 -5.81694,0 -13.52385,-0.93554 -17.12642,-2.07894 -5.86926,-1.86283 -6.45358,-1.25652 -5.62095,5.83274 0.71609,6.09683 3.87855,9.41517 13.78637,14.466 16.67523,8.50066 22.86846,8.57849 22.81815,0.28669 l 0,0 z m -70.71903,-43.3208 c 1.15451,-1.70929 2.1188,-9.21492 2.14286,-16.6792 0.0403,-12.49937 -0.50769,-13.57143 -6.93712,-13.57143 -3.97488,0 -8.89603,2.73431 -11.42857,6.35003 -5.12857,7.32208 -5.8862,22.4972 -1.34963,27.03377 3.50609,3.50608 14.39997,1.56371 17.57246,-3.13317 z m 3.61517,-44.73532 c 0,-6.9946 -1.4054,-9.99343 -5.00863,-10.68734 -6.60811,-1.2726 -8.80114,5.15154 -5.0904,14.91154 3.98657,10.48549 10.09903,7.92877 10.09903,-4.2242 l 0,0 z M 401.22077,378.81878 c 9.54386,-7.5072 9.59657,-15.32863 0.28812,-42.75009 -3.98203,-11.73054 -7.63275,-25.1854 -8.11269,-29.89968 -0.47997,-4.71429 -1.82754,-10.73813 -2.9946,-13.38631 -1.47317,-3.34274 0.13372,-6.77614 5.25554,-11.22953 9.38863,-8.1633 9.26369,-9.62392 -1.19391,-13.95559 -10.27031,-4.25411 -10.36089,-4.83505 -2.14286,-13.74217 7.03603,-7.626 7.70852,-7.50885 -11.45991,-1.99634 -14.99577,4.31253 -20.62337,31.34984 -12.38634,59.50902 l 5.69965,19.4848 -8.42671,2.93754 c -4.63469,1.61566 -8.42669,4.65372 -8.42669,6.75126 0,2.09752 -2.57143,4.6298 -5.71428,5.62732 -8.23843,2.61477 -7.02535,9.05148 2.1394,11.35168 7.52417,1.88843 7.62323,2.13966 2.36077,5.98766 -3.02112,2.20911 -9.76957,4.81883 -14.99654,5.79943 -12.02612,2.25611 -12.10418,5.60045 -0.218,9.33754 24.85811,7.81554 50.51985,7.88931 60.32897,0.17343 l 8e-5,3e-5 z m -70.61225,-36.26495 c 4.35185,-2.77817 22.9926,-30.59608 25.23342,-37.65633 2.14832,-6.76874 -6.59714,-13.14683 -21.8446,-15.93137 -17.19597,-3.14036 -22.39125,-0.001 -22.39125,13.52972 0,9.13578 -2.20577,14.3479 -10.20143,24.10556 -11.9387,14.5696 -12.17569,14.37637 21.63,17.63802 2.35714,0.22743 5.76537,-0.53108 7.57386,-1.6856 l 0,0 z m 33.69271,-209.8777 c 2.48426,-3.54679 4.44771,-12.24087 4.44771,-19.69432 0,-14.439964 -2.43651,-16.812804 -17.26388,-16.812804 -8.1206,0 -10.63217,-1.755651 -18.23866,-12.749294 -3.28291,-4.74478 -4.57777,-5.026589 -8.42508,-1.833606 -5.30449,4.402323 -10.31938,20.702014 -10.34215,33.614634 -0.0241,13.64334 13.42495,23.82541 31.46983,23.82541 11.1296,0 14.79212,-1.26726 18.35223,-6.35002 l 0,0 z"
           id="path3809"
           inkscape:connector-curvature="0"
           transform="translate(-334.38782,0.76652746)" />
        <path
           style="fill:#006cf3;fill-opacity:1;fill-rule:nonzero;stroke:none"
           d="m 685.46629,566.74665 c 5.72207,-6.1971 6.41993,-9.03533 4.71004,-19.15608 -4.88899,-28.9377 7.17274,-53.26935 25.13949,-50.71287 5.03108,0.71587 13.84127,3.38465 19.57822,5.93063 9.94518,4.41353 10.78023,4.35419 17.93606,-1.27459 6.12831,-4.82053 7.21859,-7.55778 5.94276,-14.9199 -1.92239,-11.09305 7.22901,-28.05904 20.69037,-38.35836 l 9.28571,-7.10453 0,12.78049 c 0,14.448 6.11477,22.26299 17.36784,22.197 3.80483,-0.0223 16.34702,2.22769 27.87152,5 l 20.95365,5.04057 -1.94901,18.57142 c -1.07195,10.21429 -3.10946,19.99036 -4.52778,21.72459 -3.49846,4.27769 -37.55782,9.9209 -74.11044,12.27917 -31.48008,2.03101 -37.45626,4.02519 -67.03435,22.36858 -7.85714,4.87275 -17.5,9.77064 -21.42857,10.88421 l -7.14286,2.02466 6.71735,-7.27499 0,0 z"
           id="path3811"
           inkscape:connector-curvature="0"
           transform="translate(-334.38782,0.76652746)" />
      </g>
    </g>
  </g>
</svg>
