<?xml version="1.0" encoding="UTF-8" standalone="no"?>
<!-- Created with Inkscape (http://www.inkscape.org/) -->

<svg
   xmlns:dc="http://purl.org/dc/elements/1.1/"
   xmlns:cc="http://creativecommons.org/ns#"
   xmlns:rdf="http://www.w3.org/1999/02/22-rdf-syntax-ns#"
   xmlns:svg="http://www.w3.org/2000/svg"
   xmlns="http://www.w3.org/2000/svg"
   xmlns:sodipodi="http://sodipodi.sourceforge.net/DTD/sodipodi-0.dtd"
   xmlns:inkscape="http://www.inkscape.org/namespaces/inkscape"
   width="744.09448819"
   height="1052.3622047"
   id="svg6481"
   version="1.1"
   inkscape:version="0.48.1 r9760"
   sodipodi:docname="New document 7">
  <defs
     id="defs6483">
    <filter
       inkscape:collect="always"
       id="filter8127">
      <feGaussianBlur
         inkscape:collect="always"
         stdDeviation="1.0714286"
         id="feGaussianBlur8129" />
    </filter>
    <filter
       inkscape:collect="always"
       id="filter8135">
      <feGaussianBlur
         inkscape:collect="always"
         stdDeviation="0.71428572"
         id="feGaussianBlur8137" />
    </filter>
  </defs>
  <sodipodi:namedview
     id="base"
     pagecolor="#ffffff"
     bordercolor="#666666"
     borderopacity="1.0"
     inkscape:pageopacity="0.0"
     inkscape:pageshadow="2"
     inkscape:zoom="0.98994949"
     inkscape:cx="384.25854"
     inkscape:cy="715.23207"
     inkscape:document-units="px"
     inkscape:current-layer="layer1"
     showgrid="false"
     inkscape:window-width="1223"
     inkscape:window-height="784"
     inkscape:window-x="57"
     inkscape:window-y="0"
     inkscape:window-maximized="1" />
  <metadata
     id="metadata6486">
    <rdf:RDF>
      <cc:Work
         rdf:about="">
        <dc:format>image/svg+xml</dc:format>
        <dc:type
           rdf:resource="http://purl.org/dc/dcmitype/StillImage" />
        <dc:title></dc:title>
      </cc:Work>
    </rdf:RDF>
  </metadata>
  <g
     inkscape:label="Layer 1"
     inkscape:groupmode="layer"
     id="layer1">
    <g
       id="Pouli1"
       inkscape:label="#g8220">
      <path
         d="m 288.57142,218.07646 a 42.857143,42.857143 0 1 1 -85.71428,0 42.857143,42.857143 0 1 1 85.71428,0 z"
         sodipodi:ry="42.857143"
         sodipodi:rx="42.857143"
         sodipodi:cy="218.07646"
         sodipodi:cx="245.71428"
         id="path6489"
         style="fill:#2f8cff;fill-opacity:1;fill-rule:nonzero;stroke:none"
         sodipodi:type="arc" />
      <path
         transform="matrix(0.87916667,0,0,0.87916667,29.511904,26.172334)"
         sodipodi:type="arc"
         style="fill:#0053bb;fill-opacity:1;fill-rule:nonzero;stroke:none;filter:url(#filter8135)"
         id="path8107"
         sodipodi:cx="245.71428"
         sodipodi:cy="218.07646"
         sodipodi:rx="42.857143"
         sodipodi:ry="42.857143"
         d="m 288.57142,218.07646 a 42.857143,42.857143 0 1 1 -85.71428,0 42.857143,42.857143 0 1 1 85.71428,0 z" />
      <path
         d="m 288.57142,218.07646 a 42.857143,42.857143 0 1 1 -85.71428,0 42.857143,42.857143 0 1 1 85.71428,0 z"
         sodipodi:ry="42.857143"
         sodipodi:rx="42.857143"
         sodipodi:cy="218.07646"
         sodipodi:cx="245.71428"
         id="path8109"
         style="fill:#2f8cff;fill-opacity:1;fill-rule:nonzero;stroke:none;filter:url(#filter8127)"
         sodipodi:type="arc"
         transform="matrix(0.45416668,0,0,0.45416668,134.29762,119.56911)" />
    </g>
    <g
       id="Pouli2"
       transform="translate(130.30968,-190.91883)"
       inkscape:label="#g8225">
      <path
         transform="translate(5.0507628,191.92898)"
         sodipodi:type="arc"
         style="fill:#ffd684;fill-opacity:1;fill-rule:nonzero;stroke:none"
         id="path8208"
         sodipodi:cx="245.71428"
         sodipodi:cy="218.07646"
         sodipodi:rx="42.857143"
         sodipodi:ry="42.857143"
         d="m 288.57142,218.07646 c 0,23.66935 -19.18779,42.85715 -42.85714,42.85715 -23.66935,0 -42.85714,-19.1878 -42.85714,-42.85715 0,-23.66934 19.18779,-42.85714 42.85714,-42.85714 23.66935,0 42.85714,19.1878 42.85714,42.85714 z" />
      <path
         d="m 288.57142,218.07646 c 0,23.66935 -19.18779,42.85715 -42.85714,42.85715 -23.66935,0 -42.85714,-19.1878 -42.85714,-42.85715 0,-23.66934 19.18779,-42.85714 42.85714,-42.85714 23.66935,0 42.85714,19.1878 42.85714,42.85714 z"
         sodipodi:ry="42.857143"
         sodipodi:rx="42.857143"
         sodipodi:cy="218.07646"
         sodipodi:cx="245.71428"
         id="path8210"
         style="fill:#ffaa00;fill-opacity:1;fill-rule:nonzero;stroke:none;filter:url(#filter8135)"
         sodipodi:type="arc"
         transform="matrix(0.87916667,0,0,0.87916667,34.562667,218.10131)" />
      <path
         transform="matrix(0.45416668,0,0,0.45416668,139.34838,311.49809)"
         sodipodi:type="arc"
         style="fill:#ffd684;fill-opacity:1;fill-rule:nonzero;stroke:none;filter:url(#filter8127)"
         id="path8212"
         sodipodi:cx="245.71428"
         sodipodi:cy="218.07646"
         sodipodi:rx="42.857143"
         sodipodi:ry="42.857143"
         d="m 288.57142,218.07646 c 0,23.66935 -19.18779,42.85715 -42.85714,42.85715 -23.66935,0 -42.85714,-19.1878 -42.85714,-42.85715 0,-23.66934 19.18779,-42.85714 42.85714,-42.85714 23.66935,0 42.85714,19.1878 42.85714,42.85714 z" />
    </g>
    <g
       id="Pouli3"
       inkscape:label="#g8426">
      <path
         transform="translate(-3.0304577,141.42136)"
         sodipodi:type="arc"
         style="fill:#e14b00;fill-opacity:1;fill-rule:nonzero;stroke:none"
         id="path8232"
         sodipodi:cx="245.71428"
         sodipodi:cy="218.07646"
         sodipodi:rx="42.857143"
         sodipodi:ry="42.857143"
         d="m 288.57142,218.07646 a 42.857143,42.857143 0 1 1 -85.71428,0 42.857143,42.857143 0 1 1 85.71428,0 z" />
      <path
         d="m 288.57142,218.07646 a 42.857143,42.857143 0 1 1 -85.71428,0 42.857143,42.857143 0 1 1 85.71428,0 z"
         sodipodi:ry="42.857143"
         sodipodi:rx="42.857143"
         sodipodi:cy="218.07646"
         sodipodi:cx="245.71428"
         id="path8234"
         style="fill:#ffffff;fill-opacity:1;fill-rule:nonzero;stroke:none;filter:url(#filter8135)"
         sodipodi:type="arc"
         transform="matrix(0.87916667,0,0,0.87916667,26.481446,167.59369)" />
      <path
         transform="matrix(0.45416668,0,0,0.45416668,131.26716,260.99047)"
         sodipodi:type="arc"
         style="fill:#e14b00;fill-opacity:1;fill-rule:nonzero;stroke:none;filter:url(#filter8127)"
         id="path8236"
         sodipodi:cx="245.71428"
         sodipodi:cy="218.07646"
         sodipodi:rx="42.857143"
         sodipodi:ry="42.857143"
         d="m 288.57142,218.07646 a 42.857143,42.857143 0 1 1 -85.71428,0 42.857143,42.857143 0 1 1 85.71428,0 z" />
    </g>
    <g
       id="Pouli4"
       inkscape:label="#g8292">
      <path
         d="m 288.57142,218.07646 a 42.857143,42.857143 0 1 1 -85.71428,0 42.857143,42.857143 0 1 1 85.71428,0 z"
         sodipodi:ry="42.857143"
         sodipodi:rx="42.857143"
         sodipodi:cy="218.07646"
         sodipodi:cx="245.71428"
         id="path8248"
         style="fill:#373737;fill-opacity:1;fill-rule:nonzero;stroke:none"
         sodipodi:type="arc"
         transform="translate(135.36044,146.47212)" />
      <path
         transform="matrix(0.87916667,0,0,0.87916667,164.87235,172.64445)"
         sodipodi:type="arc"
         style="fill:#ffffff;fill-opacity:1;fill-rule:nonzero;stroke:none;filter:url(#filter8135)"
         id="path8250"
         sodipodi:cx="245.71428"
         sodipodi:cy="218.07646"
         sodipodi:rx="42.857143"
         sodipodi:ry="42.857143"
         d="m 288.57142,218.07646 a 42.857143,42.857143 0 1 1 -85.71428,0 42.857143,42.857143 0 1 1 85.71428,0 z" />
      <path
         d="m 288.57142,218.07646 a 42.857143,42.857143 0 1 1 -85.71428,0 42.857143,42.857143 0 1 1 85.71428,0 z"
         sodipodi:ry="42.857143"
         sodipodi:rx="42.857143"
         sodipodi:cy="218.07646"
         sodipodi:cx="245.71428"
         id="path8252"
         style="fill:#373737;fill-opacity:1;fill-rule:nonzero;stroke:none;filter:url(#filter8127)"
         sodipodi:type="arc"
         transform="matrix(0.45416668,0,0,0.45416668,269.65806,266.04123)" />
    </g>
  </g>
</svg>
